<svg width="400" height="400" viewBox="0 0 400 400" fill="none" xmlns="http://www.w3.org/2000/svg">
<g clip-path="url(#clip0_513_3)">
<rect width="400" height="400" fill="#0085FF"/>
<circle cx="200" cy="200" r="200" fill="white"/>
<path d="M158.004 107.784C184.439 125.822 206.83 161.808 255.36 207.385C195.289 207.385 171.813 124.062 121.311 114.031H47.4312C45.1623 110.952 45.7543 94.8475 47.4312 94.5866C55.9141 93.2668 90.3387 94.5866 121.311 94.5866C138.178 95.5544 144.305 101.411 158.004 107.784Z" fill="#0085FF"/>
<path d="M240.653 137.544C301.436 206.591 321.5 209.741 293.5 206.591C264.414 200.64 265.399 193.639 199.046 126.78C173.609 97.464 163.945 93.7885 178.735 95.8013C201.805 100.614 215.847 109.366 240.653 137.544Z" fill="#0085FF"/>
<path d="M296.263 137.544C357.046 206.591 377.11 209.741 349.11 206.591C320.024 200.64 321.01 193.639 254.656 126.78C229.219 97.464 219.555 93.7885 234.345 95.8013C257.416 100.614 271.457 109.366 296.263 137.544Z" fill="#0085FF"/>
<path d="M136.773 139.012C139.118 139.809 141.868 141.528 143.549 143.252C145.209 144.946 162.968 161.816 164.525 163.173C165.06 163.637 165.474 164.187 165.438 164.394C165.373 164.783 164.486 164.82 157.148 164.538C154.814 164.463 150.28 164.31 147.069 164.22C135.161 163.832 131.872 163.729 128.639 163.609C126.811 163.54 124.136 163.434 122.675 163.4C117.579 163.258 106.463 162.924 102.249 162.771C93.9548 162.461 90.8687 162.419 90.6262 162.592C90.4747 162.699 90.7731 164.403 91.2654 166.38C91.7577 168.356 92.3912 170.917 92.678 172.058C92.9649 173.2 93.5301 175.376 93.963 176.915L94.7213 179.684L95.8364 179.712C96.4761 179.714 99.4238 179.786 102.428 179.841C105.432 179.896 110.268 179.994 113.19 180.061C116.112 180.129 121.32 180.237 124.748 180.31C128.179 180.357 134.235 180.501 138.168 180.58C142.127 180.663 148.213 180.786 151.722 180.846C155.232 180.907 160.017 180.996 162.355 181.045C164.719 181.098 167.702 181.123 169.011 181.105C170.805 181.061 172.244 181.225 174.638 181.736C178.681 182.58 180.995 183.718 183.773 186.215C186.551 188.711 197.811 199.069 201.637 202.623C203.413 204.257 205.216 205.895 205.635 206.259C206.687 207.13 206.5 207.765 205.246 207.767C204.689 207.752 203.569 207.75 202.765 207.774C201.966 207.772 196.93 207.746 191.575 207.72C186.224 207.669 179.589 207.64 176.792 207.62C174.022 207.604 165.55 207.558 158.007 207.535C150.469 207.487 140.636 207.45 136.162 207.413C131.684 207.402 127.366 207.392 126.566 207.39C125.762 207.414 121.392 207.395 116.837 207.371C112.311 207.325 104.985 207.286 100.589 207.262C92.3809 207.233 73.6521 207.132 68.2189 207.093C66.5419 207.076 65.0335 207.007 64.8911 206.903C64.7444 206.825 63.4127 201.613 61.9455 195.312C60.4522 189.006 58.647 181.234 57.8811 178.038C57.1195 174.816 56.4306 171.953 56.3492 171.646C56.2678 171.339 55.9084 169.838 55.5533 168.311C53.6033 159.662 51.7766 151.86 50.2953 145.956C49.6834 143.426 49.1408 140.801 49.1252 140.105C48.9921 136.163 52.4071 134.261 58.7556 134.721C61.5992 134.936 69.0804 135.321 74.4613 135.511C77.1626 135.622 81.7482 135.784 84.6613 135.904C87.5699 136.049 95.4921 136.349 102.273 136.616C109.055 136.883 116.203 137.186 118.157 137.303C121.566 137.48 122.764 137.496 127.06 137.476C129.412 137.447 134.631 138.277 136.773 139.012Z" fill="#0085FF"/>
<path d="M50.2384 265.772V291.826L67.2574 291.308L84.1112 290.79L84.6069 285.269L85.1026 279.748L76.3452 279.23C68.0836 278.713 67.5879 278.367 67.0922 273.881C66.5965 269.395 66.7617 269.223 74.8581 269.223C82.6241 269.223 83.285 268.878 83.285 265.082C83.285 261.113 82.4588 260.768 75.5191 260.251C68.7445 259.733 67.5879 259.215 67.0922 255.937C66.5965 252.486 67.4227 252.141 75.3538 251.624C83.9459 251.106 84.1112 250.933 84.6069 245.412L85.1026 239.891H67.7531H50.2384V265.772Z" fill="#0085FF"/>
<path d="M218.776 265.599V291.653H226.212H233.647V279.402C233.647 265.944 234.969 265.426 240.257 276.297C244.883 285.441 248.518 285.096 253.641 274.744L257.606 266.634L258.102 279.057L258.598 291.653H265.868H273.303V265.599V239.718L265.703 240.235L257.937 240.753L252.153 252.658L246.37 264.564L240.422 252.658L234.474 240.753L226.708 240.235L218.776 239.718V265.599Z" fill="#0085FF"/>
<path d="M352.287 241.098C347.991 241.788 347.66 242.478 347.66 249.725C347.66 256.454 347.33 257.317 344.851 256.109C343.199 255.419 338.903 254.556 335.268 254.039C329.65 253.521 327.832 254.211 324.197 258.007C315.935 266.634 316.266 279.747 324.858 287.339C330.476 292.343 338.407 293.033 344.025 288.892C347.33 286.476 347.66 286.476 347.66 288.892C347.66 290.963 349.478 291.653 355.096 291.653H362.531V265.772C362.531 237.302 363.357 239.373 352.287 241.098ZM346.008 269.05C349.147 275.261 344.19 280.783 337.581 278.712C333.781 277.332 331.963 271.465 334.441 268.36C337.416 264.736 343.86 265.254 346.008 269.05Z" fill="#0085FF"/>
<path d="M93.0377 258.698C89.0722 263.012 88.246 265.255 88.246 272.329C88.246 279.748 89.0722 281.646 93.5334 286.305C99.4818 292.344 109.396 293.724 113.031 289.066C114.848 286.65 115.344 286.823 116.996 289.238C118.318 291.136 120.962 291.654 125.423 291.309L132.033 290.791L132.528 272.157L133.024 253.695H125.589C120.632 253.695 117.657 254.557 116.666 256.455C115.344 258.871 115.014 258.871 113.196 256.455C111.874 254.73 108.404 253.695 104.439 253.695C99.4818 253.695 96.8381 254.903 93.0377 258.698ZM114.353 267.326C117.327 269.223 116.17 276.125 112.7 278.541C106.917 282.337 100.473 273.882 104.769 268.361C107.083 265.428 111.048 265.082 114.353 267.326Z" fill="#0085FF"/>
<path d="M142.108 257.317C134.342 263.701 137.151 275.261 146.9 277.159C154.997 278.712 154.336 281.99 146.239 280.783C140.291 280.092 139.63 280.265 138.639 284.406C137.317 290.1 139.795 291.653 150.37 291.653C157.145 291.653 159.458 290.79 162.597 287.512C164.58 285.096 166.398 281.128 166.398 278.54C166.398 273.363 160.78 267.497 155.823 267.497C154.17 267.497 152.353 266.634 151.857 265.772C151.196 264.736 153.509 264.046 157.31 264.046C162.597 264.046 164.084 263.356 164.745 260.25C166.232 254.556 164.911 253.694 155.327 253.694C148.883 253.694 145.248 254.729 142.108 257.317Z" fill="#0085FF"/>
<path d="M171.024 267.325C171.684 278.885 172.345 281.646 175.65 285.442C180.277 290.618 188.043 291.308 193.66 287.167C196.635 285.097 197.296 285.097 197.296 286.822C197.296 290.791 193.66 293.379 188.043 293.379C183.416 293.379 182.755 294.069 182.094 298.555C181.598 301.488 181.764 304.076 182.094 304.594C184.077 306.492 197.791 305.284 202.418 302.696C209.853 298.728 212.167 291.136 212.167 270.949V253.694H204.731H197.296V261.286C197.296 271.466 194.817 277.85 190.851 277.85C186.886 277.85 185.729 274.572 185.729 263.012V253.694H178.129H170.528L171.024 267.325Z" fill="#0085FF"/>
<path d="M286.192 257.662C278.096 264.736 276.278 272.328 280.739 281.3C284.044 287.857 291.149 291.653 300.402 291.653C310.812 291.653 312.96 290.445 312.96 284.406C312.96 279.402 312.795 279.23 306.846 280.438C302.55 281.128 299.576 280.61 297.428 279.057C294.454 276.814 294.949 276.469 304.368 275.261C314.282 274.053 314.612 273.881 314.612 269.222C314.612 266.462 312.795 261.976 310.316 259.042C306.681 254.384 304.863 253.694 298.419 253.694C292.801 253.694 289.497 254.729 286.192 257.662ZM302.55 265.081C302.881 266.117 301.063 267.497 298.585 268.015C292.967 269.05 291.975 268.36 294.784 264.909C297.097 261.976 301.559 261.976 302.55 265.081Z" fill="#0085FF"/>
</g>
<defs>
<clipPath id="clip0_513_3">
<rect width="400" height="400" fill="white"/>
</clipPath>
</defs>
</svg>
